<svg xmlns="http://www.w3.org/2000/svg" xmlns:xlink="http://www.w3.org/1999/xlink" width="500" zoomAndPan="magnify" viewBox="0 0 375 374.999991" height="500" preserveAspectRatio="xMidYMid meet" version="1.0"><defs><g/></defs><rect x="-37.5" width="450" fill="#ffffff" y="-37.499999" height="449.999989" fill-opacity="1"/><rect x="-37.5" width="450" fill="#ffffff" y="-37.499999" height="449.999989" fill-opacity="1"/><rect x="-37.5" width="450" fill="#ffffff" y="-37.499999" height="449.999989" fill-opacity="1"/><g fill="#a50113" fill-opacity="1"><g transform="translate(183.474699, 320.827866)"><g><path d="M 157.492188 -49.804688 L 19.183594 -49.804688 L 0.671875 -4.375 C -0.335938 -1.683594 1.007812 0 4.375 0 L 157.15625 0 C 159.511719 0 161.195312 -1.683594 161.195312 -3.027344 L 161.195312 -46.777344 C 161.195312 -48.460938 159.847656 -49.804688 157.492188 -49.804688 Z M 3.703125 -219.074219 L 86.824219 -219.074219 L 39.710938 -101.292969 L 94.898438 -101.292969 L 160.519531 -264.84375 C 161.195312 -267.535156 159.847656 -269.21875 156.820312 -269.21875 L 3.703125 -269.21875 C 1.683594 -269.21875 0 -267.535156 0 -266.1875 L 0 -222.441406 C 0 -220.757812 1.683594 -219.074219 3.703125 -219.074219 Z M 3.703125 -219.074219 "/></g></g></g><g fill="#ffffff" fill-opacity="1"><g transform="translate(25.34538, 320.827866)"><g><path d="M 211.335938 -4.039062 L 109.03125 -267.199219 C 108.023438 -269.890625 103.3125 -269.890625 102.300781 -267.199219 L 0.335938 -4.039062 C -0.671875 -2.019531 0.671875 0 3.703125 0 L 49.804688 0 C 51.152344 0 52.832031 -0.671875 53.171875 -2.019531 L 105.667969 -152.109375 L 158.839844 -2.019531 C 159.175781 -0.671875 160.855469 0 161.867188 0 L 208.308594 0 C 210.664062 0 212.34375 -2.019531 211.335938 -4.039062 Z M 211.335938 -4.039062 "/></g></g></g></svg>